<?xml version="1.0" standalone="no"?><!DOCTYPE svg PUBLIC "-//W3C//DTD SVG 1.1//EN" "http://www.w3.org/Graphics/SVG/1.1/DTD/svg11.dtd"><svg t="1608258941708" class="icon" viewBox="0 0 1024 1024" version="1.1" xmlns="http://www.w3.org/2000/svg" p-id="1396" xmlns:xlink="http://www.w3.org/1999/xlink" width="200" height="200"><defs><style type="text/css"></style></defs><path d="M801.792 55.296c-47.104 0-90.112 17.408-119.808 47.104L123.904 665.6 55.296 972.8l307.2-68.608L921.6 336.896c29.696-29.696 47.104-72.704 47.104-119.808C968.704 128 896 55.296 801.792 55.296zM324.608 862.208l-145.408 33.792 0-51.2-51.2 0 33.792-145.408 161.792 0L323.584 862.208zM362.496 836.608 362.496 678.912c0-13.312-8.192-21.504-21.504-21.504l-153.6 0 447.488-448.512 179.2 175.104L362.496 836.608zM891.904 307.2l-47.104 47.104L669.696 179.2l47.104-47.104c0 0 33.792-38.912 90.112-38.912 68.608 0 123.904 55.296 123.904 123.904C925.696 256 913.408 285.696 891.904 307.2z" fill="#707070" p-id="1397"></path></svg>